<svg width="61" height="61" viewBox="0 0 61 61" fill="none" xmlns="http://www.w3.org/2000/svg">
<path d="M39.1652 12.3617L37.6414 30.6483C37.5583 31.6592 36.6492 32.3769 35.7129 32.2801C34.7285 32.1998 33.999 31.3359 34.0811 30.3516L35.8431 9.2029C35.9301 8.16113 35.1079 7.26758 34.0622 7.26758H26.9369C25.8915 7.26758 25.0691 8.16113 25.1561 9.20302L26.9188 30.3517C27.0007 31.336 26.2712 32.1981 25.287 32.2802C24.3527 32.3768 23.4419 31.6622 23.3585 30.6484L21.8342 12.362C20.6311 12.775 19.4851 13.295 18.3712 13.8633L19.7458 30.3518C19.8277 31.3361 19.0982 32.1982 18.114 32.2803C17.1797 32.3769 16.2689 31.6623 16.1855 30.6486L14.9599 15.9461C8.08083 20.8649 3.57422 28.8541 3.57422 37.6484C3.57422 38.6344 2.77312 39.4355 1.78711 39.4355H59.2129C58.2269 39.4355 57.4258 38.6344 57.4258 37.6484C57.4258 28.8541 52.9194 20.8651 46.0401 15.9459L44.8143 30.6483C44.7311 31.6592 43.8221 32.3769 42.8857 32.2801C41.9014 32.1981 41.1719 31.3342 41.254 30.3516L42.6288 13.8631C41.5148 13.2949 40.3685 12.7746 39.1652 12.3617ZM0 44.7969C3.7982e-05 45.1288 0.0924608 45.4541 0.26692 45.7364C0.441379 46.0188 0.690987 46.247 0.987795 46.3955C1.58636 46.6957 15.9483 53.7324 30.5 53.7324C45.0517 53.7324 59.4136 46.6956 60.0122 46.3955C60.309 46.247 60.5586 46.0188 60.7331 45.7364C60.9075 45.4541 61 45.1288 61 44.7969C61 43.8099 60.1999 43.0098 59.2129 43.0098H1.78711C0.800148 43.0098 0 43.8099 0 44.7969Z" fill="white"/>
</svg>
