<svg width="245" height="31" viewBox="0 0 245 31" fill="none" xmlns="http://www.w3.org/2000/svg">
<path d="M1.3251 16.7846C2.72536 16.7526 4.24183 16.7814 5.64882 16.7819L14.1416 16.7893C13.5253 17.7392 12.2069 19.4606 12.724 20.587C13.3438 21.9373 15.3972 21.5109 16.618 21.4403L21.6328 21.1448L46.9412 19.5814C47.9246 19.5196 55.4298 18.964 55.6862 19.0542L55.7071 19.155C55.4814 19.4634 54.2965 19.6041 53.8863 19.6942C52.9847 19.9014 52.0822 20.103 51.1788 20.2999L28.1822 25.2542L21.6104 26.6495C20.3586 26.9162 19.0359 27.226 17.7736 27.4141C16.9458 27.5372 15.8803 27.5112 15.0315 27.5121L11.7932 27.513L8.75261 27.5116C8.35756 27.5112 7.95819 27.5047 7.56332 27.5075C4.62698 27.5214 1.41748 26.3369 0.347059 23.3651C-0.497203 21.0213 0.343482 18.913 1.3251 16.7846Z" fill="white"/>
<path d="M30.5563 7.08709C31.9809 6.87491 33.6317 7.68085 34.9647 8.17596C36.7591 8.83795 38.5488 9.513 40.3334 10.2011C45.3689 12.1169 50.6367 14.0879 55.6124 16.1348C55.7104 16.4971 55.7053 16.7024 55.7076 17.0702L46.5738 17.0238L30.7272 16.9662L25.6375 16.9564C24.7292 16.9546 23.8104 16.9667 22.9043 16.9277C22.231 16.8979 21.5694 16.4362 21.3871 15.7758C21.2125 15.143 21.509 14.454 21.9111 13.9688C22.6837 13.0323 23.4919 12.1102 24.3199 11.2217C26.0745 9.35294 27.8631 7.41382 30.5563 7.08709Z" fill="white"/>
<path d="M18.6439 0.0299768C19.0696 -0.0137789 19.8066 0.00303534 20.247 0.0038249L22.998 0.0116777L27.1767 0.0337871C31.5243 0.0521817 32.0929 0.155668 35.9342 2.1724C37.1753 2.82227 38.4076 3.4891 39.6306 4.17269C42.8078 5.94612 45.9454 7.78979 49.0408 9.70238C51.0149 10.9272 53.5115 12.4943 55.3031 13.9403C53.0057 12.8799 50.6591 11.7085 48.3784 10.6004L38.8926 6.05124L35.6184 4.51289C33.1496 3.35616 31.2359 2.45537 28.4178 2.47641C24.0464 2.37381 20.3456 5.48066 17.7338 8.72583C14.7389 12.4469 14.8371 12.1516 10.2395 12.1445L4.04639 12.1341C5.28682 10.2681 6.63277 8.47445 8.07763 6.76182C10.9607 3.32932 13.9095 0.440308 18.6439 0.0299768Z" fill="white"/>
<path d="M55.5283 20.9175L55.578 20.9268C55.3439 21.1404 51.7919 22.6194 51.2907 22.8363L40.4039 27.5843C39.3096 28.0744 38.2236 28.5839 37.1474 29.1125C36.8547 29.2537 35.6155 29.871 35.3665 29.9226C34.8221 30.0359 33.4802 29.9913 32.8708 29.9913L27.7335 29.9807L27.6499 29.956C27.8413 29.8283 28.348 29.6704 28.5938 29.5714C29.4586 29.2152 30.3286 28.8719 31.2037 28.5417C35 27.0971 38.7053 25.921 42.5871 24.7268C44.858 24.0245 47.1321 23.3338 49.41 22.6547C51.4166 22.0685 53.5509 21.532 55.5283 20.9175Z" fill="white"/>
<path d="M71.5781 26V10H77.5781C78.8073 10 79.8385 10.2135 80.6719 10.6406C81.5104 11.0677 82.1432 11.6667 82.5703 12.4375C83.0026 13.2031 83.2188 14.0964 83.2188 15.1172C83.2188 16.1432 83 17.0339 82.5625 17.7891C82.1302 18.5391 81.4922 19.1198 80.6484 19.5312C79.8047 19.9375 78.7682 20.1406 77.5391 20.1406H73.2656V17.7344H77.1484C77.8672 17.7344 78.4557 17.6354 78.9141 17.4375C79.3724 17.2344 79.7109 16.9401 79.9297 16.5547C80.1536 16.1641 80.2656 15.6849 80.2656 15.1172C80.2656 14.5495 80.1536 14.0651 79.9297 13.6641C79.7057 13.2578 79.3646 12.9505 78.9063 12.7422C78.4479 12.5286 77.8568 12.4219 77.1328 12.4219H74.4766V26H71.5781ZM79.8438 18.75L83.8047 26H80.5703L76.6797 18.75H79.8438ZM99.0352 10V26H96.457L88.918 15.1016H88.7852V26H85.8867V10H88.4805L96.0117 20.9062H96.1523V10H99.0352ZM110.889 14.3984C110.816 13.7161 110.508 13.1849 109.967 12.8047C109.43 12.4245 108.732 12.2344 107.873 12.2344C107.269 12.2344 106.751 12.3255 106.318 12.5078C105.886 12.6901 105.555 12.9375 105.326 13.25C105.097 13.5625 104.98 13.9193 104.975 14.3203C104.975 14.6536 105.05 14.9427 105.201 15.1875C105.357 15.4323 105.568 15.6406 105.834 15.8125C106.1 15.9792 106.394 16.1198 106.717 16.2344C107.04 16.349 107.365 16.4453 107.693 16.5234L109.193 16.8984C109.798 17.0391 110.378 17.2292 110.936 17.4687C111.498 17.7083 112.001 18.0104 112.443 18.375C112.891 18.7396 113.245 19.1797 113.506 19.6953C113.766 20.2109 113.896 20.8151 113.896 21.5078C113.896 22.4453 113.657 23.2708 113.178 23.9844C112.699 24.6927 112.006 25.2474 111.1 25.6484C110.199 26.0443 109.107 26.2422 107.826 26.2422C106.581 26.2422 105.501 26.0495 104.584 25.6641C103.673 25.2786 102.959 24.7161 102.443 23.9766C101.933 23.237 101.657 22.3359 101.615 21.2734H104.467C104.508 21.8307 104.68 22.2943 104.982 22.6641C105.285 23.0339 105.678 23.3099 106.162 23.4922C106.652 23.6745 107.199 23.7656 107.803 23.7656C108.433 23.7656 108.985 23.6719 109.459 23.4844C109.938 23.2917 110.313 23.026 110.584 22.6875C110.855 22.3437 110.993 21.9427 110.998 21.4844C110.993 21.0677 110.87 20.724 110.631 20.4531C110.391 20.1771 110.055 19.9479 109.623 19.7656C109.196 19.5781 108.696 19.4115 108.123 19.2656L106.303 18.7969C104.985 18.4583 103.943 17.9453 103.178 17.2578C102.417 16.5651 102.037 15.6458 102.037 14.5C102.037 13.5573 102.292 12.7318 102.803 12.0234C103.318 11.3151 104.019 10.7656 104.904 10.375C105.79 9.97917 106.792 9.78125 107.912 9.78125C109.048 9.78125 110.042 9.97917 110.896 10.375C111.756 10.7656 112.43 11.3099 112.92 12.0078C113.41 12.7005 113.662 13.4974 113.678 14.3984H110.889ZM121.234 12.4297V10H134V12.4297H129.055V26H126.18V12.4297H121.234ZM139.908 26.2344C138.705 26.2344 137.666 25.9844 136.791 25.4844C135.921 24.9792 135.252 24.2656 134.783 23.3437C134.314 22.4167 134.08 21.3255 134.08 20.0703C134.08 18.8359 134.314 17.7526 134.783 16.8203C135.257 15.8828 135.919 15.1536 136.768 14.6328C137.617 14.1068 138.614 13.8438 139.76 13.8438C140.499 13.8438 141.197 13.9635 141.854 14.2031C142.515 14.4375 143.098 14.8021 143.604 15.2969C144.114 15.7917 144.515 16.4219 144.807 17.1875C145.098 17.9479 145.244 18.8542 145.244 19.9062V20.7734H135.408V18.8672H142.533C142.528 18.3255 142.411 17.8437 142.182 17.4219C141.952 16.9948 141.632 16.6589 141.221 16.4141C140.814 16.1693 140.34 16.0469 139.799 16.0469C139.221 16.0469 138.713 16.1875 138.275 16.4687C137.838 16.7448 137.497 17.1094 137.252 17.5625C137.012 18.0104 136.89 18.5026 136.885 19.0391V20.7031C136.885 21.401 137.012 22 137.268 22.5C137.523 22.9948 137.88 23.375 138.338 23.6406C138.796 23.901 139.333 24.0312 139.947 24.0312C140.359 24.0312 140.731 23.974 141.064 23.8594C141.398 23.7396 141.687 23.5651 141.932 23.3359C142.176 23.1068 142.361 22.8229 142.486 22.4844L145.127 22.7812C144.96 23.4792 144.643 24.0885 144.174 24.6094C143.71 25.125 143.117 25.526 142.393 25.8125C141.669 26.0937 140.84 26.2344 139.908 26.2344ZM152.871 26.2344C151.673 26.2344 150.645 25.9714 149.785 25.4453C148.931 24.9193 148.272 24.1927 147.809 23.2656C147.35 22.3333 147.121 21.2604 147.121 20.0469C147.121 18.8281 147.355 17.7526 147.824 16.8203C148.293 15.8828 148.954 15.1536 149.809 14.6328C150.668 14.1068 151.684 13.8438 152.855 13.8438C153.829 13.8438 154.691 14.0234 155.441 14.3828C156.197 14.737 156.798 15.2396 157.246 15.8906C157.694 16.5365 157.949 17.2917 158.012 18.1562H155.309C155.199 17.5781 154.939 17.0964 154.527 16.7109C154.121 16.3203 153.577 16.125 152.895 16.125C152.316 16.125 151.809 16.2812 151.371 16.5937C150.934 16.901 150.592 17.3437 150.348 17.9219C150.108 18.5 149.988 19.1927 149.988 20C149.988 20.8177 150.108 21.5208 150.348 22.1094C150.587 22.6927 150.923 23.1432 151.355 23.4609C151.793 23.7734 152.306 23.9297 152.895 23.9297C153.311 23.9297 153.684 23.8516 154.012 23.6953C154.345 23.5339 154.624 23.3021 154.848 23C155.072 22.6979 155.225 22.3307 155.309 21.8984H158.012C157.944 22.7474 157.694 23.5 157.262 24.1562C156.829 24.8073 156.241 25.3177 155.496 25.6875C154.751 26.0521 153.876 26.2344 152.871 26.2344ZM163.162 18.9687V26H160.334V10H163.1V16.0391H163.24C163.521 15.362 163.956 14.8281 164.545 14.4375C165.139 14.0417 165.894 13.8438 166.811 13.8438C167.644 13.8438 168.37 14.0182 168.99 14.3672C169.61 14.7161 170.089 15.2266 170.428 15.8984C170.771 16.5703 170.943 17.3906 170.943 18.3594V26H168.115V18.7969C168.115 17.9896 167.907 17.362 167.49 16.9141C167.079 16.4609 166.501 16.2344 165.756 16.2344C165.256 16.2344 164.808 16.3437 164.412 16.5625C164.021 16.776 163.714 17.0859 163.49 17.4922C163.271 17.8984 163.162 18.3906 163.162 18.9687ZM176.654 18.9687V26H173.826V14H176.529V16.0391H176.67C176.946 15.3672 177.386 14.8333 177.99 14.4375C178.6 14.0417 179.352 13.8438 180.248 13.8438C181.076 13.8438 181.798 14.0208 182.412 14.375C183.032 14.7292 183.511 15.2422 183.85 15.9141C184.193 16.5859 184.363 17.401 184.357 18.3594V26H181.529V18.7969C181.529 17.9948 181.321 17.3672 180.904 16.9141C180.493 16.4609 179.923 16.2344 179.193 16.2344C178.699 16.2344 178.258 16.3437 177.873 16.5625C177.493 16.776 177.193 17.0859 176.975 17.4922C176.761 17.8984 176.654 18.3906 176.654 18.9687ZM192.467 26.2344C191.295 26.2344 190.279 25.9766 189.42 25.4609C188.561 24.9453 187.894 24.224 187.42 23.2969C186.951 22.3698 186.717 21.2865 186.717 20.0469C186.717 18.8073 186.951 17.7214 187.42 16.7891C187.894 15.8568 188.561 15.1328 189.42 14.6172C190.279 14.1016 191.295 13.8438 192.467 13.8438C193.639 13.8438 194.654 14.1016 195.514 14.6172C196.373 15.1328 197.037 15.8568 197.506 16.7891C197.98 17.7214 198.217 18.8073 198.217 20.0469C198.217 21.2865 197.98 22.3698 197.506 23.2969C197.037 24.224 196.373 24.9453 195.514 25.4609C194.654 25.9766 193.639 26.2344 192.467 26.2344ZM192.482 23.9687C193.118 23.9687 193.649 23.7943 194.076 23.4453C194.503 23.0911 194.821 22.6172 195.029 22.0234C195.243 21.4297 195.35 20.7682 195.35 20.0391C195.35 19.3047 195.243 18.6406 195.029 18.0469C194.821 17.4479 194.503 16.9714 194.076 16.6172C193.649 16.263 193.118 16.0859 192.482 16.0859C191.831 16.0859 191.29 16.263 190.857 16.6172C190.43 16.9714 190.11 17.4479 189.896 18.0469C189.688 18.6406 189.584 19.3047 189.584 20.0391C189.584 20.7682 189.688 21.4297 189.896 22.0234C190.11 22.6172 190.43 23.0911 190.857 23.4453C191.29 23.7943 191.831 23.9687 192.482 23.9687ZM203.445 10V26H200.617V10H203.445ZM211.588 26.2344C210.416 26.2344 209.4 25.9766 208.541 25.4609C207.682 24.9453 207.015 24.224 206.541 23.2969C206.072 22.3698 205.838 21.2865 205.838 20.0469C205.838 18.8073 206.072 17.7214 206.541 16.7891C207.015 15.8568 207.682 15.1328 208.541 14.6172C209.4 14.1016 210.416 13.8438 211.588 13.8438C212.76 13.8438 213.775 14.1016 214.635 14.6172C215.494 15.1328 216.158 15.8568 216.627 16.7891C217.101 17.7214 217.338 18.8073 217.338 20.0469C217.338 21.2865 217.101 22.3698 216.627 23.2969C216.158 24.224 215.494 24.9453 214.635 25.4609C213.775 25.9766 212.76 26.2344 211.588 26.2344ZM211.604 23.9687C212.239 23.9687 212.77 23.7943 213.197 23.4453C213.624 23.0911 213.942 22.6172 214.15 22.0234C214.364 21.4297 214.471 20.7682 214.471 20.0391C214.471 19.3047 214.364 18.6406 214.15 18.0469C213.942 17.4479 213.624 16.9714 213.197 16.6172C212.77 16.263 212.239 16.0859 211.604 16.0859C210.952 16.0859 210.411 16.263 209.979 16.6172C209.551 16.9714 209.231 17.4479 209.018 18.0469C208.809 18.6406 208.705 19.3047 208.705 20.0391C208.705 20.7682 208.809 21.4297 209.018 22.0234C209.231 22.6172 209.551 23.0911 209.979 23.4453C210.411 23.7943 210.952 23.9687 211.604 23.9687ZM224.957 30.75C223.941 30.75 223.069 30.612 222.34 30.3359C221.611 30.0651 221.025 29.7005 220.582 29.2422C220.139 28.7839 219.832 28.276 219.66 27.7188L222.207 27.1016C222.322 27.3359 222.488 27.5677 222.707 27.7969C222.926 28.0313 223.22 28.224 223.59 28.375C223.965 28.5313 224.436 28.6094 225.004 28.6094C225.806 28.6094 226.47 28.4141 226.996 28.0234C227.522 27.638 227.785 27.0026 227.785 26.1172V23.8437H227.645C227.499 24.1354 227.285 24.4349 227.004 24.7422C226.728 25.0495 226.361 25.3073 225.902 25.5156C225.449 25.724 224.879 25.8281 224.191 25.8281C223.27 25.8281 222.434 25.612 221.684 25.1797C220.939 24.7422 220.345 24.0911 219.902 23.2266C219.465 22.3568 219.246 21.2682 219.246 19.9609C219.246 18.6432 219.465 17.5312 219.902 16.625C220.345 15.7135 220.941 15.0234 221.691 14.5547C222.441 14.0807 223.277 13.8438 224.199 13.8438C224.902 13.8438 225.48 13.9635 225.934 14.2031C226.392 14.4375 226.757 14.7214 227.027 15.0547C227.298 15.3828 227.504 15.6927 227.645 15.9844H227.801V14H230.59V26.1953C230.59 27.2214 230.345 28.0703 229.855 28.7422C229.366 29.4141 228.697 29.9167 227.848 30.25C226.999 30.5833 226.035 30.75 224.957 30.75ZM224.98 23.6094C225.579 23.6094 226.09 23.4635 226.512 23.1719C226.934 22.8802 227.254 22.4609 227.473 21.9141C227.691 21.3672 227.801 20.7109 227.801 19.9453C227.801 19.1901 227.691 18.5286 227.473 17.9609C227.259 17.3932 226.941 16.9531 226.52 16.6406C226.103 16.3229 225.59 16.1641 224.98 16.1641C224.35 16.1641 223.824 16.3281 223.402 16.6562C222.98 16.9844 222.663 17.4349 222.449 18.0078C222.236 18.5755 222.129 19.2214 222.129 19.9453C222.129 20.6797 222.236 21.3229 222.449 21.875C222.668 22.4219 222.988 22.849 223.41 23.1562C223.837 23.4583 224.361 23.6094 224.98 23.6094ZM235.246 30.5C234.861 30.5 234.504 30.4688 234.176 30.4063C233.853 30.349 233.595 30.2813 233.402 30.2031L234.059 28C234.47 28.1198 234.837 28.1771 235.16 28.1719C235.483 28.1667 235.767 28.0651 236.012 27.8672C236.262 27.6745 236.473 27.3516 236.645 26.8984L236.887 26.25L232.535 14H235.535L238.301 23.0625H238.426L241.199 14H244.207L239.402 27.4531C239.178 28.0885 238.882 28.6328 238.512 29.0859C238.142 29.5443 237.689 29.8932 237.152 30.1328C236.621 30.3776 235.986 30.5 235.246 30.5Z" fill="white"/>
</svg>
