<svg width="67" height="60" viewBox="0 0 67 60" fill="none" xmlns="http://www.w3.org/2000/svg">
<path d="M19.9308 10.173V5.39793C19.9308 4.67129 20.5536 4.04845 21.2802 4.04845H45.1557C45.8823 4.04845 46.5052 4.67129 46.5052 5.39793V10.173H50.5536V5.39793C50.5536 2.38755 48.1661 0 45.1557 0H21.2802C18.2699 0 15.8823 2.38755 15.8823 5.39793V10.173H19.9308Z" fill="#DF4666"/>
<path d="M66.436 11.9377V58.0277C66.436 59.1695 65.5017 60 64.4637 60H1.97232C0.83045 60 0 59.0657 0 58.0277V11.9377C0 10.7958 0.934256 9.96533 1.97232 9.96533H64.4637C65.5017 9.96533 66.436 10.7958 66.436 11.9377Z" fill="#E5A45E"/>
<path d="M66.436 11.9377V30.519C66.436 31.6609 65.5017 32.4913 64.4637 32.4913H1.97232C0.83045 32.4913 0 31.5571 0 30.519V11.9377C0 10.7958 0.934256 9.96533 1.97232 9.96533H64.4637C65.5017 9.96533 66.436 10.7958 66.436 11.9377Z" fill="#F1B974"/>
<path d="M64.4637 9.96533H1.97232C0.83045 9.96533 0 10.8996 0 11.9377V12.9757C0 11.8338 0.934256 11.0034 1.97232 11.0034H64.4637C65.5017 11.0034 66.436 11.9377 66.436 12.9757V11.9377C66.436 10.7958 65.5017 9.96533 64.4637 9.96533Z" fill="#F9C38A"/>
<path d="M30.3115 9.96533V49.1003C30.3115 50.7612 31.661 52.0069 33.2181 52.0069C34.879 52.0069 36.1247 50.6574 36.1247 49.1003V9.96533H30.3115Z" fill="#D08230"/>
<path d="M33.218 41.1074C33.7913 41.1074 34.2561 40.6426 34.2561 40.0693C34.2561 39.496 33.7913 39.0312 33.218 39.0312C32.6447 39.0312 32.1799 39.496 32.1799 40.0693C32.1799 40.6426 32.6447 41.1074 33.218 41.1074Z" fill="#B2651F"/>
<path d="M33.218 31.2458C33.7913 31.2458 34.2561 30.781 34.2561 30.2077C34.2561 29.6344 33.7913 29.1697 33.218 29.1697C32.6447 29.1697 32.1799 29.6344 32.1799 30.2077C32.1799 30.781 32.6447 31.2458 33.218 31.2458Z" fill="#B2651F"/>
<path d="M33.218 21.384C33.7913 21.384 34.2561 20.9192 34.2561 20.3459C34.2561 19.7726 33.7913 19.3079 33.218 19.3079C32.6447 19.3079 32.1799 19.7726 32.1799 20.3459C32.1799 20.9192 32.6447 21.384 33.218 21.384Z" fill="#B2651F"/>
<path d="M33.218 34.5674V39.7577" stroke="#F4F4F4" stroke-width="11.8154" stroke-miterlimit="1" stroke-linecap="round" stroke-linejoin="round"/>
</svg>
