<svg width="90" height="70" viewBox="0 0 90 70" fill="none" xmlns="http://www.w3.org/2000/svg">
<path fill-rule="evenodd" clip-rule="evenodd" d="M31.7688 12.5688L15.75 17.2499L12.176 31.427C12.7943 36.6343 13.7704 41.5089 16.9899 44.238L43.5582 65.8305L46.7726 68.3036C51.612 72.026 56.1959 66.8238 52.5166 62.9785C52.4634 62.9209 52.4089 62.8645 52.3531 62.8095C53.5949 63.854 54.99 64.151 56.2113 63.9513C58.8993 63.5161 60.7391 60.6692 58.2657 58.0117C63.1 61.8723 67.2291 55.7229 63.4423 52.3485C67.6635 53.6797 72.2626 48.2061 67.878 43.5569C67.8474 43.521 67.8115 43.4801 67.7758 43.4442L56.7836 27.0796L42.0404 17.6326L31.7688 12.5688Z" fill="#FFBC85"/>
<path fill-rule="evenodd" clip-rule="evenodd" d="M43.1594 66.2912C47.2476 61.9337 41.284 56.921 37.9879 59.8753L34.4567 63.2343C34.4158 63.2752 34.3801 63.3111 34.3391 63.3417C31.3752 66.3218 36.7615 73.1113 41.2175 68.3597L43.1594 66.2912Z" fill="#FFE5C1"/>
<path fill-rule="evenodd" clip-rule="evenodd" d="M31.8299 53.7977L28.0994 57.7097L28.084 57.7301C26.2136 59.7169 27.5116 62.7635 29.7245 63.9514C31.094 64.6886 32.8111 64.7194 34.339 63.342L38.3353 63.2806L37.9878 59.8756L38.4988 59.3944C42.4951 55.5951 36.7255 49.0309 32.2233 53.3831L31.8299 53.7977Z" fill="#FFE5C1"/>
<path fill-rule="evenodd" clip-rule="evenodd" d="M25.1663 48.4368L21.6708 52.149L21.1803 52.6765C17.7309 56.3375 23.9093 62.103 27.471 58.3652L28.0842 57.7303C28.1353 57.6739 31.8812 57.2847 32.29 57.2387L32.2235 53.3831L33.4193 52.1287C37.533 47.8124 31.1044 42.1287 27.1898 46.2916L25.1663 48.4368Z" fill="#FFE5C1"/>
<path fill-rule="evenodd" clip-rule="evenodd" d="M16.99 44.2381L15.8044 45.5233C12.1556 49.4865 17.593 55.8048 21.6709 52.1489L25.0181 51.6318L25.1663 48.4367C28.4726 44.6938 22.7083 38.0322 18.1704 42.9579L16.99 44.2381Z" fill="#FFE5C1"/>
<path fill-rule="evenodd" clip-rule="evenodd" d="M21.998 1.44751L5.77293 17.0697L1.1582 21.5089C-0.344176 22.9529 -0.3902 25.3645 1.05092 26.8699L7.93453 34.0485C8.33318 34.4633 9.00255 34.4787 9.42167 34.0793L12.1762 31.427L31.7689 12.5689L34.2014 10.2237C34.6206 9.82439 34.6358 9.15361 34.2321 8.73379L27.3484 1.55514C25.9073 0.0496143 23.5004 0.00358835 21.998 1.44751Z" fill="#7BACDF"/>
<path fill-rule="evenodd" clip-rule="evenodd" d="M52.8538 28.6056L47.9276 29.7321L49.8592 31.6931L64.7813 46.5319L64.8835 46.6446C66.6823 48.5493 66.9684 50.5873 66.3962 52.2461C69.3447 51.1197 71.2202 47.1003 67.8781 43.5569L67.7759 43.4442L63.2992 38.9946L52.8538 28.6056ZM31.7688 12.5688L28.6311 15.5846L38.4377 20.4234L42.0404 17.6328L31.7688 12.5688Z" fill="#F5A96C"/>
<path fill-rule="evenodd" clip-rule="evenodd" d="M42.0404 17.6327L38.4377 20.4232L35.0444 23.0449C26.4745 29.6809 33.5828 36.2348 38.6676 33.9871L44.3861 30.5412L47.9276 29.7322L52.8538 28.6057L63.2992 38.9949L67.7758 43.4444C70.5916 42.3897 74.5725 39.3482 78.8703 32.4254L72.3374 18.7571L57.08 11.4475L53.1656 14.576C52.5218 15.088 52.7159 14.9907 51.9034 14.9652C48.965 14.873 45.2294 15.1649 43.037 16.8597L42.0404 17.6327Z" fill="#FFE5C1"/>
<path fill-rule="evenodd" clip-rule="evenodd" d="M42.0252 28.2627L36.3068 31.7086C34.7482 32.3999 32.9952 32.2617 31.5645 31.5449C32.8062 33.931 36.0156 35.1598 38.6677 33.9873L44.3861 30.5414L47.9276 29.7324L52.7926 28.6213C50.539 26.6909 50.1352 26.4093 45.5616 27.459L42.0252 28.2627ZM75.3135 29C71.4859 35.1598 67.9138 38.2473 65.1901 39.599C64.9007 39.7442 64.6039 39.8741 64.3009 39.9882L67.7759 43.4445C70.5916 42.3897 74.5725 39.3483 78.8703 32.4254L75.3135 29Z" fill="#FED1A3"/>
<path fill-rule="evenodd" clip-rule="evenodd" d="M16.4482 6.79306C17.9506 5.36454 20.3423 5.42089 21.7782 6.91591L28.6618 14.0946C29.0605 14.5144 29.0501 15.1852 28.6312 15.5845L31.7689 12.5686L34.2014 10.2234C34.6205 9.82406 34.6358 9.15328 34.232 8.73346L27.3484 1.5548C25.9073 0.0494576 23.5004 0.0032568 21.998 1.44735L16.4482 6.79306Z" fill="#3987D0"/>
<path fill-rule="evenodd" clip-rule="evenodd" d="M14.6035 48.5545C14.6392 51.9083 18.5538 54.9446 21.671 52.149L23.8633 49.8243L25.1663 48.4367C26.5308 46.8904 26.3469 44.8525 25.3502 43.3318C25.3452 44.2227 25.0487 45.1136 24.369 45.8868L22.0489 48.3497L20.8786 49.599C18.6049 51.6317 15.9116 50.5719 14.6035 48.5545ZM20.3271 56.1633C21.1446 58.9078 24.9621 61.002 27.4712 58.365L28.0844 57.73C28.0882 57.7223 28.0934 57.7153 28.0998 57.7096L31.8303 53.7976C31.9562 53.6545 32.0875 53.5162 32.2239 53.3829L33.4196 52.1285C35.6374 49.8038 34.7943 47.0799 32.9291 45.7127C33.2663 46.9671 32.9956 48.4162 31.7384 49.732L30.5427 50.9864C30.4098 51.1144 30.2821 51.2526 30.1491 51.3961V51.4012L26.4186 55.3131C26.4135 55.3182 26.4085 55.3235 26.3981 55.3285L25.79 55.9685C24.1238 57.7199 21.8856 57.3871 20.3271 56.1633ZM34.4569 63.2345L37.1806 60.6487L37.988 59.8755L38.499 59.3943C40.6249 57.3718 39.9861 54.5659 38.2384 53.0399C38.6115 54.3764 38.3356 55.8868 37.0477 57.1106L36.5418 57.5918L35.1007 58.9589L33.0054 60.9558L32.8878 61.0582C31.3599 62.4356 29.6428 62.4048 28.2733 61.6726C27.9342 61.4874 27.6185 61.2622 27.333 61.0018C27.6702 62.2153 28.5748 63.3367 29.7245 63.9511C31.0941 64.6884 32.8112 64.7192 34.3391 63.3418L34.4569 63.2345ZM43.1596 66.2912C45.2038 64.11 44.7335 61.7699 43.3435 60.3414C43.3129 61.3091 42.9041 62.3486 41.9638 63.347L40.0218 65.4208C37.6354 67.9605 34.9831 67.1975 33.4909 65.4822C33.5113 68.5902 37.6609 72.154 41.2176 68.3599L43.1596 66.2912Z" fill="#FED1A3"/>
<path d="M63.4418 53.7018C63.0999 53.7022 62.7706 53.5725 62.5207 53.3392L57.0732 48.2649C56.8107 48.0203 56.6561 47.6815 56.6433 47.3229C56.6304 46.9643 56.7604 46.6153 57.0048 46.3525C57.1257 46.2225 57.2711 46.1176 57.4326 46.0437C57.5942 45.9699 57.7687 45.9286 57.9461 45.9223C58.1236 45.9159 58.3006 45.9446 58.467 46.0066C58.6334 46.0687 58.786 46.1629 58.9159 46.2839L64.3635 51.3582C64.626 51.6029 64.7806 51.9417 64.7934 52.3003C64.8063 52.6588 64.6762 53.0078 64.4319 53.2706C64.3055 53.4069 64.1523 53.5155 63.9819 53.5898C63.8115 53.664 63.6276 53.7021 63.4418 53.7018ZM58.2651 59.365C57.9232 59.3653 57.5939 59.2356 57.3441 59.0022L51.8915 53.9228C51.629 53.6782 51.4743 53.3394 51.4616 52.9809C51.4488 52.6223 51.5788 52.2733 51.8232 52.0106C51.9441 51.8806 52.0895 51.7756 52.251 51.7018C52.4125 51.6279 52.587 51.5867 52.7645 51.5803C52.942 51.5739 53.119 51.6026 53.2854 51.6647C53.4518 51.7268 53.6043 51.8211 53.7342 51.9422L59.1868 57.0216C59.4493 57.2662 59.6039 57.605 59.6167 57.9635C59.6295 58.3221 59.4995 58.6711 59.2551 58.9338C59.1287 59.07 58.9755 59.1786 58.8052 59.2528C58.6348 59.327 58.4509 59.3652 58.2651 59.365ZM52.5314 64.3418C52.1899 64.3421 51.8611 64.2128 51.6113 63.9799L48.8365 61.3994C48.5738 61.155 48.4188 60.8163 48.4057 60.4577C48.3926 60.0992 48.5223 59.7501 48.7665 59.4871C48.8873 59.357 49.0326 59.2519 49.1941 59.178C49.3555 59.104 49.53 59.0626 49.7074 59.0561C49.8849 59.0495 50.0619 59.0781 50.2284 59.14C50.3948 59.2019 50.5474 59.296 50.6775 59.417L53.4523 61.9975C53.715 62.2419 53.8699 62.5806 53.8831 62.9391C53.8962 63.2977 53.7664 63.6468 53.5223 63.9097C53.3959 64.0462 53.2426 64.1551 53.0721 64.2294C52.9015 64.3038 52.7175 64.342 52.5314 64.3418Z" fill="#F5A96C"/>
<path fill-rule="evenodd" clip-rule="evenodd" d="M57.0797 11.4474L75.3131 28.9999L78.8698 32.4253L80.1781 33.685C80.5972 34.0843 81.2666 34.0689 81.6652 33.6542L85.2578 29.906L88.5489 26.4754C89.99 24.97 89.9439 22.5583 88.4416 21.1144L85.2578 18.0525L67.6019 1.053C66.0996 -0.390922 63.6926 -0.344897 62.2515 1.16045L55.3679 8.3391C54.9642 8.75893 54.9796 9.4297 55.3985 9.82905L57.0797 11.4474Z" fill="#FE636E"/>
<path fill-rule="evenodd" clip-rule="evenodd" d="M80.715 25.5284L77.1224 29.2814C76.7187 29.6961 76.0544 29.7115 75.6353 29.3069L78.8701 32.4253L80.1784 33.6849C80.5975 34.0843 81.2669 34.0689 81.6656 33.6541L85.2581 29.906L88.5492 26.4753C89.9903 24.9699 89.9443 22.5583 88.4419 21.1143L84.415 17.2383L84.7575 17.5711L83.9143 16.757C85.3962 18.2009 85.4422 20.6025 84.0064 22.0975L80.715 25.5284Z" fill="#FB2A39"/>
</svg>
