<svg width="120" height="118" viewBox="0 0 120 118" fill="none" xmlns="http://www.w3.org/2000/svg">
<path d="M97.5 70.0625V25.8125C97.494 20.9244 95.5167 16.2381 92.0017 12.7817C88.4867 9.32525 83.721 7.38086 78.75 7.375H41.25C36.279 7.38086 31.5133 9.32525 27.9983 12.7817C24.4833 16.2381 22.506 20.9244 22.5 25.8125V70.0625C22.5072 74.2798 23.9828 78.3676 26.6812 81.6456C29.3795 84.9236 33.138 87.1942 37.3312 88.0796L26.8012 105.016C26.5264 105.43 26.3388 105.893 26.2495 106.379C26.1602 106.865 26.1711 107.363 26.2815 107.845C26.3919 108.327 26.5996 108.782 26.8922 109.183C27.1849 109.585 27.5565 109.924 27.9851 110.181C28.4136 110.439 28.8904 110.609 29.3871 110.682C29.8838 110.754 30.3903 110.728 30.8766 110.605C31.3629 110.482 31.819 110.264 32.2179 109.964C32.6168 109.664 32.9503 109.288 33.1987 108.859L36.69 103.25H83.3137L86.8012 108.859C87.0497 109.288 87.3832 109.664 87.7821 109.964C88.181 110.264 88.6371 110.482 89.1234 110.605C89.6097 110.728 90.1162 110.754 90.6129 110.682C91.1096 110.609 91.5864 110.439 92.0149 110.181C92.4435 109.924 92.8151 109.585 93.1078 109.183C93.4004 108.782 93.6081 108.327 93.7185 107.845C93.8289 107.363 93.8398 106.865 93.7505 106.379C93.6612 105.893 93.4736 105.43 93.1988 105.016L82.6688 88.0796C86.862 87.1942 90.6205 84.9236 93.3188 81.6456C96.0172 78.3676 97.4928 74.2798 97.5 70.0625ZM41.25 73.75C40.5083 73.75 39.7833 73.5337 39.1666 73.1285C38.5499 72.7234 38.0693 72.1474 37.7855 71.4736C37.5016 70.7998 37.4274 70.0584 37.5721 69.3431C37.7167 68.6278 38.0739 67.9707 38.5984 67.455C39.1228 66.9393 39.791 66.5881 40.5184 66.4459C41.2458 66.3036 41.9998 66.3766 42.6851 66.6557C43.3703 66.9348 43.956 67.4074 44.368 68.0138C44.7801 68.6202 45 69.3332 45 70.0625C45 71.0405 44.6049 71.9784 43.9016 72.67C43.1984 73.3615 42.2446 73.75 41.25 73.75ZM41.2762 95.875L45.8625 88.5H74.1413L78.7275 95.875H41.2762ZM75 70.0625C75 69.3332 75.2199 68.6202 75.632 68.0138C76.044 67.4074 76.6297 66.9348 77.3149 66.6557C78.0002 66.3766 78.7542 66.3036 79.4816 66.4459C80.209 66.5881 80.8772 66.9393 81.4017 67.455C81.9261 67.9707 82.2832 68.6278 82.4279 69.3431C82.5726 70.0584 82.4984 70.7998 82.2146 71.4736C81.9307 72.1474 81.4501 72.7234 80.8334 73.1285C80.2167 73.5337 79.4917 73.75 78.75 73.75C77.7554 73.75 76.8016 73.3615 76.0983 72.67C75.3951 71.9784 75 71.0405 75 70.0625ZM86.25 47.9375C86.25 49.8935 85.4598 51.7693 84.0533 53.1524C82.6468 54.5355 80.7391 55.3125 78.75 55.3125H41.25C39.2609 55.3125 37.3532 54.5355 35.9467 53.1524C34.5402 51.7693 33.75 49.8935 33.75 47.9375V25.8125C33.75 23.8565 34.5402 21.9807 35.9467 20.5976C37.3532 19.2145 39.2609 18.4375 41.25 18.4375H78.75C80.7391 18.4375 82.6468 19.2145 84.0533 20.5976C85.4598 21.9807 86.25 23.8565 86.25 25.8125V47.9375Z" fill="white"/>
</svg>
