<svg width="80" height="80" viewBox="0 0 80 80" fill="none" xmlns="http://www.w3.org/2000/svg">
<path d="M70.4688 21.0938L54.0625 16.4062L49.375 0H16.5625C12.6792 0 9.53125 3.14797 9.53125 7.03125V72.9688C9.53125 76.852 12.6792 80 16.5625 80H63.4375C67.3208 80 70.4688 76.852 70.4688 72.9688V21.0938Z" fill="#4086F4"/>
<path d="M70.4688 21.0938V72.9688C70.4688 76.852 67.3208 80 63.4375 80H40V0H49.375L54.0625 16.4062L70.4688 21.0938Z" fill="#4175DF"/>
<path d="M70.4688 21.0938H54.0625C51.4844 21.0938 49.375 18.9844 49.375 16.4062V0C49.9844 0 50.5937 0.234375 51.0155 0.703281L69.7655 19.4533C70.2344 19.875 70.4688 20.4844 70.4688 21.0938Z" fill="#80AEF8"/>
<path d="M54.0625 37.6562H25.9375C24.642 37.6562 23.5938 36.608 23.5938 35.3125C23.5938 34.017 24.642 32.9688 25.9375 32.9688H54.0625C55.358 32.9688 56.4062 34.017 56.4062 35.3125C56.4062 36.608 55.358 37.6562 54.0625 37.6562ZM54.0625 47.0312H25.9375C24.642 47.0312 23.5938 45.983 23.5938 44.6875C23.5938 43.392 24.642 42.3438 25.9375 42.3438H54.0625C55.358 42.3438 56.4062 43.392 56.4062 44.6875C56.4062 45.983 55.358 47.0312 54.0625 47.0312ZM54.0625 56.4062H25.9375C24.642 56.4062 23.5938 55.358 23.5938 54.0625C23.5938 52.767 24.642 51.7188 25.9375 51.7188H54.0625C55.358 51.7188 56.4062 52.767 56.4062 54.0625C56.4062 55.358 55.358 56.4062 54.0625 56.4062ZM44.6875 65.7812H25.9375C24.642 65.7812 23.5938 64.733 23.5938 63.4375C23.5938 62.142 24.642 61.0938 25.9375 61.0938H44.6875C45.983 61.0938 47.0312 62.142 47.0312 63.4375C47.0312 64.733 45.983 65.7812 44.6875 65.7812Z" fill="#FFF5F5"/>
<path d="M40 65.7812H44.6875C45.983 65.7812 47.0312 64.733 47.0312 63.4375C47.0312 62.142 45.983 61.0938 44.6875 61.0938H40V65.7812ZM40 56.4062H54.0625C55.358 56.4062 56.4062 55.358 56.4062 54.0625C56.4062 52.767 55.358 51.7188 54.0625 51.7188H40V56.4062ZM40 47.0312H54.0625C55.358 47.0312 56.4062 45.983 56.4062 44.6875C56.4062 43.392 55.358 42.3438 54.0625 42.3438H40V47.0312ZM40 37.6562H54.0625C55.358 37.6562 56.4062 36.608 56.4062 35.3125C56.4062 34.017 55.358 32.9688 54.0625 32.9688H40V37.6562Z" fill="#E3E7EA"/>
</svg>
