<svg width="207" height="30" viewBox="0 0 207 30" fill="none" xmlns="http://www.w3.org/2000/svg">
<path d="M65.2912 21V7.90909H70.2003C71.206 7.90909 72.0497 8.08381 72.7315 8.43324C73.4176 8.78267 73.9354 9.27273 74.2848 9.90341C74.6385 10.5298 74.8153 11.2607 74.8153 12.0959C74.8153 12.9354 74.6364 13.6641 74.2784 14.282C73.9247 14.8956 73.4027 15.3707 72.7124 15.7074C72.022 16.0398 71.174 16.206 70.1683 16.206H66.6719V14.2372H69.8487C70.4368 14.2372 70.9183 14.1562 71.2933 13.9943C71.6683 13.8281 71.9453 13.5874 72.1243 13.272C72.3075 12.9524 72.3991 12.5604 72.3991 12.0959C72.3991 11.6314 72.3075 11.2351 72.1243 10.907C71.9411 10.5746 71.6619 10.3232 71.2869 10.1527C70.9119 9.97798 70.4283 9.89062 69.8359 9.89062H67.6626V21H65.2912ZM72.054 15.0682L75.2947 21H72.6484L69.4652 15.0682H72.054ZM87.756 7.90909V21H85.6467L79.4783 12.0831H79.3697V21H76.9982V7.90909H79.1204L85.2823 16.8324H85.3974V7.90909H87.756ZM97.4544 11.5078C97.3947 10.9496 97.1433 10.5149 96.7001 10.2038C96.2612 9.89276 95.6902 9.73722 94.987 9.73722C94.4927 9.73722 94.0687 9.81179 93.715 9.96094C93.3613 10.1101 93.0907 10.3125 92.9032 10.5682C92.7157 10.8239 92.6199 11.1158 92.6156 11.4439C92.6156 11.7166 92.6774 11.9531 92.801 12.1534C92.9288 12.3537 93.1014 12.5241 93.3187 12.6648C93.536 12.8011 93.7768 12.9162 94.041 13.0099C94.3052 13.1037 94.5716 13.1825 94.84 13.2464L96.0673 13.5533C96.5616 13.6683 97.0368 13.8239 97.4927 14.0199C97.9529 14.2159 98.3642 14.4631 98.7264 14.7614C99.0929 15.0597 99.3826 15.4197 99.5957 15.8416C99.8088 16.2635 99.9153 16.7578 99.9153 17.3246C99.9153 18.0916 99.7193 18.767 99.3272 19.3509C98.9352 19.9304 98.3684 20.3842 97.627 20.7124C96.8897 21.0362 95.997 21.1982 94.9487 21.1982C93.9302 21.1982 93.046 21.0405 92.296 20.7251C91.5502 20.4098 90.9664 19.9496 90.5446 19.3445C90.127 18.7393 89.9011 18.0021 89.867 17.1328H92.2001C92.2342 17.5888 92.3748 17.968 92.622 18.2706C92.8691 18.5732 93.1909 18.799 93.5872 18.9482C93.9877 19.0973 94.4352 19.1719 94.9295 19.1719C95.4451 19.1719 95.8968 19.0952 96.2846 18.9418C96.6767 18.7841 96.9835 18.5668 97.2051 18.2898C97.4267 18.0085 97.5396 17.6804 97.5439 17.3054C97.5396 16.9645 97.4395 16.6832 97.2434 16.4616C97.0474 16.2358 96.7725 16.0483 96.4189 15.8991C96.0694 15.7457 95.6603 15.6094 95.1916 15.4901L93.7022 15.1065C92.6241 14.8295 91.7718 14.4098 91.1454 13.8473C90.5233 13.2805 90.2122 12.5284 90.2122 11.5909C90.2122 10.8196 90.421 10.1442 90.8386 9.56463C91.2605 8.98509 91.8336 8.53551 92.5581 8.21591C93.2825 7.89204 94.1028 7.73011 95.019 7.73011C95.948 7.73011 96.7619 7.89204 97.4608 8.21591C98.1639 8.53551 98.7157 8.98082 99.1163 9.55185C99.5169 10.1186 99.7235 10.7706 99.7363 11.5078H97.4544ZM105.919 9.89702V7.90909H116.364V9.89702H112.317V21H109.965V9.89702H105.919ZM121.198 21.1918C120.213 21.1918 119.363 20.9872 118.647 20.5781C117.936 20.1648 117.388 19.581 117.004 18.8267C116.621 18.0682 116.429 17.1754 116.429 16.1484C116.429 15.1385 116.621 14.2521 117.004 13.4893C117.392 12.7223 117.933 12.1257 118.628 11.6996C119.323 11.2692 120.139 11.054 121.076 11.054C121.681 11.054 122.252 11.152 122.789 11.348C123.33 11.5398 123.808 11.8381 124.221 12.2429C124.639 12.6477 124.967 13.1634 125.205 13.7898C125.444 14.4119 125.563 15.1534 125.563 16.0142V16.7237H117.516V15.1641H123.345C123.341 14.7209 123.245 14.3267 123.058 13.9815C122.87 13.6321 122.608 13.3572 122.271 13.157C121.939 12.9567 121.551 12.8565 121.108 12.8565C120.635 12.8565 120.22 12.9716 119.862 13.2017C119.504 13.4276 119.225 13.7259 119.024 14.0966C118.828 14.4631 118.728 14.8658 118.724 15.3047V16.6662C118.724 17.2372 118.828 17.7273 119.037 18.1364C119.246 18.5412 119.538 18.8523 119.913 19.0696C120.288 19.2827 120.727 19.3892 121.23 19.3892C121.566 19.3892 121.871 19.3423 122.144 19.2486C122.416 19.1506 122.653 19.0078 122.853 18.8203C123.053 18.6328 123.205 18.4006 123.307 18.1236L125.468 18.3665C125.331 18.9375 125.071 19.4361 124.688 19.8622C124.308 20.2841 123.823 20.6122 123.23 20.8466C122.638 21.0767 121.96 21.1918 121.198 21.1918ZM131.804 21.1918C130.824 21.1918 129.982 20.9766 129.279 20.5462C128.58 20.1158 128.041 19.5213 127.662 18.7628C127.287 18 127.099 17.1222 127.099 16.1293C127.099 15.1321 127.291 14.2521 127.674 13.4893C128.058 12.7223 128.599 12.1257 129.298 11.6996C130.001 11.2692 130.832 11.054 131.791 11.054C132.588 11.054 133.293 11.201 133.907 11.495C134.525 11.7848 135.017 12.196 135.383 12.7287C135.75 13.2571 135.958 13.875 136.01 14.5824H133.798C133.708 14.1094 133.495 13.7152 133.159 13.3999C132.826 13.0803 132.381 12.9205 131.823 12.9205C131.35 12.9205 130.934 13.0483 130.576 13.304C130.218 13.5554 129.939 13.9176 129.739 14.3906C129.543 14.8636 129.445 15.4304 129.445 16.0909C129.445 16.7599 129.543 17.3352 129.739 17.8168C129.935 18.294 130.21 18.6626 130.564 18.9226C130.922 19.1783 131.341 19.3061 131.823 19.3061C132.164 19.3061 132.468 19.2422 132.737 19.1143C133.01 18.9822 133.238 18.7926 133.421 18.5455C133.604 18.2983 133.73 17.9979 133.798 17.6442H136.01C135.954 18.3388 135.75 18.9545 135.396 19.4915C135.042 20.0241 134.561 20.4418 133.951 20.7443C133.342 21.0426 132.626 21.1918 131.804 21.1918ZM140.224 15.2472V21H137.91V7.90909H140.172V12.8501H140.287C140.518 12.2962 140.873 11.8594 141.355 11.5398C141.841 11.2159 142.459 11.054 143.209 11.054C143.89 11.054 144.485 11.1967 144.992 11.4822C145.499 11.7678 145.891 12.1854 146.168 12.7351C146.449 13.2848 146.59 13.956 146.59 14.7486V21H144.276V15.1065C144.276 14.446 144.106 13.9325 143.765 13.5661C143.428 13.1953 142.955 13.0099 142.346 13.0099C141.937 13.0099 141.57 13.0994 141.246 13.2784C140.927 13.4531 140.675 13.7067 140.492 14.0391C140.313 14.3714 140.224 14.7741 140.224 15.2472ZM151.263 15.2472V21H148.949V11.1818H151.16V12.8501H151.275C151.501 12.3004 151.861 11.8636 152.356 11.5398C152.854 11.2159 153.47 11.054 154.203 11.054C154.881 11.054 155.471 11.1989 155.974 11.4886C156.481 11.7784 156.873 12.1982 157.15 12.7479C157.431 13.2976 157.569 13.9645 157.565 14.7486V21H155.251V15.1065C155.251 14.4503 155.081 13.9368 154.74 13.5661C154.403 13.1953 153.937 13.0099 153.34 13.0099C152.935 13.0099 152.575 13.0994 152.26 13.2784C151.949 13.4531 151.704 13.7067 151.525 14.0391C151.35 14.3714 151.263 14.7741 151.263 15.2472ZM164.2 21.1918C163.241 21.1918 162.41 20.9808 161.707 20.5589C161.004 20.1371 160.459 19.5469 160.071 18.7884C159.687 18.0298 159.496 17.1435 159.496 16.1293C159.496 15.1151 159.687 14.2266 160.071 13.4638C160.459 12.701 161.004 12.1087 161.707 11.6868C162.41 11.2649 163.241 11.054 164.2 11.054C165.159 11.054 165.99 11.2649 166.693 11.6868C167.396 12.1087 167.939 12.701 168.323 13.4638C168.711 14.2266 168.905 15.1151 168.905 16.1293C168.905 17.1435 168.711 18.0298 168.323 18.7884C167.939 19.5469 167.396 20.1371 166.693 20.5589C165.99 20.9808 165.159 21.1918 164.2 21.1918ZM164.213 19.3381C164.733 19.3381 165.167 19.1953 165.517 18.9098C165.866 18.62 166.126 18.2322 166.297 17.7464C166.471 17.2607 166.559 16.7195 166.559 16.1229C166.559 15.522 166.471 14.9787 166.297 14.4929C166.126 14.0028 165.866 13.6129 165.517 13.3232C165.167 13.0334 164.733 12.8885 164.213 12.8885C163.68 12.8885 163.237 13.0334 162.883 13.3232C162.534 13.6129 162.272 14.0028 162.097 14.4929C161.927 14.9787 161.841 15.522 161.841 16.1229C161.841 16.7195 161.927 17.2607 162.097 17.7464C162.272 18.2322 162.534 18.62 162.883 18.9098C163.237 19.1953 163.68 19.3381 164.213 19.3381ZM173.183 7.90909V21H170.869V7.90909H173.183ZM179.845 21.1918C178.886 21.1918 178.055 20.9808 177.352 20.5589C176.649 20.1371 176.103 19.5469 175.715 18.7884C175.332 18.0298 175.14 17.1435 175.14 16.1293C175.14 15.1151 175.332 14.2266 175.715 13.4638C176.103 12.701 176.649 12.1087 177.352 11.6868C178.055 11.2649 178.886 11.054 179.845 11.054C180.803 11.054 181.634 11.2649 182.338 11.6868C183.041 12.1087 183.584 12.701 183.968 13.4638C184.355 14.2266 184.549 15.1151 184.549 16.1293C184.549 17.1435 184.355 18.0298 183.968 18.7884C183.584 19.5469 183.041 20.1371 182.338 20.5589C181.634 20.9808 180.803 21.1918 179.845 21.1918ZM179.857 19.3381C180.377 19.3381 180.812 19.1953 181.161 18.9098C181.511 18.62 181.771 18.2322 181.941 17.7464C182.116 17.2607 182.203 16.7195 182.203 16.1229C182.203 15.522 182.116 14.9787 181.941 14.4929C181.771 14.0028 181.511 13.6129 181.161 13.3232C180.812 13.0334 180.377 12.8885 179.857 12.8885C179.325 12.8885 178.882 13.0334 178.528 13.3232C178.178 13.6129 177.916 14.0028 177.742 14.4929C177.571 14.9787 177.486 15.522 177.486 16.1229C177.486 16.7195 177.571 17.2607 177.742 17.7464C177.916 18.2322 178.178 18.62 178.528 18.9098C178.882 19.1953 179.325 19.3381 179.857 19.3381ZM190.783 24.8864C189.952 24.8864 189.238 24.7734 188.642 24.5476C188.045 24.326 187.566 24.0277 187.203 23.6527C186.841 23.2777 186.59 22.8622 186.449 22.4062L188.533 21.9013C188.627 22.093 188.763 22.2827 188.942 22.4702C189.121 22.6619 189.362 22.8196 189.664 22.9432C189.971 23.071 190.357 23.1349 190.821 23.1349C191.478 23.1349 192.021 22.9751 192.451 22.6555C192.882 22.3402 193.097 21.8203 193.097 21.0959V19.2358H192.982C192.863 19.4744 192.688 19.7195 192.458 19.9709C192.232 20.2223 191.931 20.4332 191.556 20.6037C191.186 20.7741 190.719 20.8594 190.157 20.8594C189.402 20.8594 188.718 20.6825 188.105 20.3288C187.495 19.9709 187.01 19.4382 186.647 18.7308C186.289 18.0192 186.11 17.1286 186.11 16.0589C186.11 14.9808 186.289 14.071 186.647 13.3295C187.01 12.5838 187.498 12.0192 188.111 11.6357C188.725 11.2479 189.409 11.054 190.163 11.054C190.738 11.054 191.211 11.152 191.582 11.348C191.957 11.5398 192.255 11.772 192.477 12.0447C192.699 12.3132 192.867 12.5668 192.982 12.8054H193.11V11.1818H195.392V21.1598C195.392 21.9993 195.191 22.6939 194.791 23.2436C194.39 23.7933 193.843 24.2045 193.148 24.4773C192.453 24.75 191.665 24.8864 190.783 24.8864ZM190.802 19.044C191.292 19.044 191.71 18.9247 192.055 18.6861C192.4 18.4474 192.662 18.1044 192.841 17.657C193.02 17.2095 193.11 16.6726 193.11 16.0462C193.11 15.4283 193.02 14.8871 192.841 14.4226C192.667 13.9581 192.407 13.598 192.061 13.3423C191.721 13.0824 191.301 12.9524 190.802 12.9524C190.287 12.9524 189.856 13.0866 189.511 13.3551C189.166 13.6236 188.906 13.9922 188.731 14.4609C188.556 14.9254 188.469 15.4538 188.469 16.0462C188.469 16.647 188.556 17.1733 188.731 17.625C188.91 18.0724 189.172 18.4219 189.517 18.6733C189.867 18.9205 190.295 19.044 190.802 19.044ZM199.201 24.6818C198.886 24.6818 198.594 24.6563 198.326 24.6051C198.061 24.5582 197.85 24.5028 197.693 24.4389L198.23 22.6364C198.566 22.7344 198.867 22.7813 199.131 22.777C199.395 22.7727 199.627 22.6896 199.828 22.5277C200.032 22.37 200.205 22.1058 200.346 21.7351L200.544 21.2045L196.983 11.1818H199.438L201.701 18.5966H201.803L204.072 11.1818H206.533L202.602 22.1889C202.419 22.7088 202.176 23.1541 201.873 23.5249C201.571 23.8999 201.2 24.1854 200.761 24.3814C200.326 24.5817 199.806 24.6818 199.201 24.6818Z" fill="#0F4D33"/>
<path d="M1.3251 16.7848C2.72536 16.7528 4.24183 16.7816 5.64882 16.7821L14.1416 16.7895C13.5253 17.7394 12.2069 19.4608 12.724 20.5872C13.3438 21.9375 15.3972 21.5111 16.618 21.4405L21.6328 21.145L46.9412 19.5816C47.9246 19.5198 55.4298 18.9642 55.6862 19.0544L55.7071 19.1552C55.4814 19.4636 54.2965 19.6043 53.8863 19.6944C52.9847 19.9016 52.0822 20.1032 51.1788 20.3001L28.1822 25.2544L21.6104 26.6497C20.3586 26.9164 19.0359 27.2262 17.7736 27.4143C16.9458 27.5374 15.8803 27.5114 15.0315 27.5123L11.7932 27.5132L8.75261 27.5118C8.35756 27.5114 7.95819 27.5049 7.56332 27.5077C4.62698 27.5216 1.41748 26.3371 0.347059 23.3653C-0.497203 21.0215 0.343482 18.9131 1.3251 16.7848Z" fill="#0F4B32"/>
<path d="M30.5563 7.08692C31.9808 6.87474 33.6317 7.68069 34.9647 8.17579C36.7591 8.83779 38.5488 9.51283 40.3334 10.2009C45.3689 12.1167 50.6367 14.0878 55.6124 16.1346C55.7104 16.4969 55.7053 16.7022 55.7076 17.0701L46.5738 17.0236L30.7272 16.966L25.6375 16.9563C24.7292 16.9544 23.8104 16.9665 22.9043 16.9275C22.231 16.8978 21.5694 16.4361 21.3871 15.7757C21.2125 15.1429 21.509 14.4539 21.9111 13.9686C22.6837 13.0321 23.4919 12.11 24.3199 11.2215C26.0745 9.35277 27.8631 7.41365 30.5563 7.08692Z" fill="#0F4E33"/>
<path d="M18.6439 0.0299768C19.0696 -0.0137789 19.8066 0.00303534 20.247 0.0038249L22.998 0.0116777L27.1767 0.0337871C31.5243 0.0521817 32.0929 0.155668 35.9342 2.1724C37.1753 2.82227 38.4076 3.4891 39.6306 4.17269C42.8078 5.94612 45.9454 7.78979 49.0408 9.70238C51.0149 10.9272 53.5115 12.4943 55.3031 13.9403C53.0057 12.8799 50.6591 11.7085 48.3784 10.6004L38.8926 6.05124L35.6184 4.51289C33.1496 3.35616 31.2359 2.45537 28.4178 2.47641C24.0464 2.37381 20.3456 5.48066 17.7338 8.72583C14.7389 12.4469 14.8371 12.1516 10.2395 12.1445L4.04639 12.1341C5.28682 10.2681 6.63277 8.47445 8.07763 6.76182C10.9607 3.32932 13.9095 0.440308 18.6439 0.0299768Z" fill="url(#paint0_linear_26_8)"/>
<path d="M55.5283 20.9175L55.578 20.9268C55.3439 21.1404 51.7919 22.6194 51.2907 22.8363L40.4039 27.5843C39.3096 28.0744 38.2236 28.5839 37.1474 29.1125C36.8547 29.2537 35.6155 29.871 35.3665 29.9226C34.8221 30.0359 33.4802 29.9914 32.8708 29.9914L27.7335 29.9807L27.6499 29.9561C27.8413 29.8283 28.348 29.6704 28.5938 29.5715C29.4586 29.2152 30.3286 28.8719 31.2037 28.5417C35 27.0971 38.7053 25.921 42.5871 24.7268C44.858 24.0245 47.1321 23.3338 49.41 22.6547C51.4166 22.0685 53.5509 21.532 55.5283 20.9175Z" fill="#104C33"/>
<defs>
<linearGradient id="paint0_linear_26_8" x1="29.6747" y1="13.9403" x2="32" y2="-2.5" gradientUnits="userSpaceOnUse">
<stop stop-color="#145941"/>
<stop offset="1" stop-color="#3B9964"/>
</linearGradient>
</defs>
</svg>
