<svg width="90" height="90" viewBox="0 0 90 90" fill="none" xmlns="http://www.w3.org/2000/svg">
<path fill-rule="evenodd" clip-rule="evenodd" d="M77.168 68.9062C76.9922 68.9062 76.6406 68.7305 76.4648 68.5547L72.4219 64.5117C72.0703 64.1602 72.0703 63.457 72.4219 63.1055C72.9492 62.5781 73.4766 62.5781 74.0039 63.1055L77.8711 66.9727C78.3984 67.5 78.3984 68.0273 77.8711 68.5547C77.6953 68.7305 77.5195 68.9062 77.168 68.9062Z" fill="#C7CFE1"/>
<path fill-rule="evenodd" clip-rule="evenodd" d="M86.1328 80.5078C85.2539 80.5078 84.1992 80.1562 83.4961 79.4531L76.4648 72.4219C75.7617 71.7188 75.4102 70.6641 75.4102 69.7852C75.4102 68.7305 75.7617 67.6758 76.4648 66.9727C77.168 66.2695 78.0469 65.918 79.1016 65.918C80.1562 65.918 81.0352 66.2695 81.7383 66.9727L88.9453 74.1797C89.6484 74.8828 90 75.7617 90 76.8164C90 77.8711 89.6484 78.75 88.9453 79.4531C88.2422 80.1562 87.1875 80.5078 86.1328 80.5078Z" fill="#1F3259"/>
<path fill-rule="evenodd" clip-rule="evenodd" d="M33.9258 77.168C15.293 77.168 0 62.0508 0 43.418C0 24.6094 15.293 9.49219 33.9258 9.49219C42.0117 9.49219 49.9219 12.3047 56.0742 17.5781C62.0508 22.8516 66.0938 30.0586 67.3242 37.9688C67.5 38.4961 67.1484 39.0234 66.4453 39.0234C66.4453 39.1992 66.2695 39.1992 66.0938 39.0234L56.7773 66.0938C56.9531 66.2695 57.1289 66.2695 57.3047 66.4453C57.6562 66.7969 57.6562 67.5 57.3047 68.0273C50.9766 74.0039 42.7148 77.168 33.9258 77.168Z" fill="#3D9AE2"/>
<path fill-rule="evenodd" clip-rule="evenodd" d="M33.9258 77.168C25.8398 77.168 18.6328 74.5312 12.832 69.7852C12.6562 69.2578 12.6562 68.9062 12.832 68.7305C13.1836 68.2031 13.8867 68.0273 14.2383 68.3789C16.6992 69.9609 21.9727 66.7969 23.5547 65.5664C24.082 65.2148 24.6094 65.3906 24.9609 65.5664C28.8281 69.082 29.8828 68.5547 29.8828 68.5547C29.8828 68.5547 30.0586 67.8516 29.8828 67.1484C28.6523 64.6875 28.4766 62.7539 29.5312 61.1719C30.5859 59.2383 32.8711 58.8867 33.75 58.7109C35.6836 57.4805 37.6172 57.1289 39.375 57.6562C42.0117 58.1836 43.7695 60.293 44.1211 60.9961C45.5273 61.875 46.0547 63.1055 46.0547 63.8086C46.2305 65.918 44.4727 68.0273 43.9453 68.5547C42.8906 72.2461 43.9453 74.3555 43.9453 74.3555C44.1211 74.8828 44.2969 75.2344 44.6484 75.5859C41.1328 76.6406 37.6172 77.168 33.9258 77.168ZM4.57031 60.293C1.75781 55.3711 0 49.5703 0 43.418C0 34.2773 3.69141 25.8398 9.49219 19.8633C10.1953 19.3359 10.7227 19.3359 10.8984 19.3359C11.0742 19.5117 18.9844 23.7305 14.4141 32.6953C12.1289 37.2656 9.31641 45.7031 13.7109 48.3398C16.6992 50.2734 18.1055 52.0312 17.5781 53.9648C17.2266 55.8984 15.1172 57.6562 10.8984 58.8867C8.08594 59.9414 5.44922 60.293 5.27344 60.293H4.57031Z" fill="#91DC5A"/>
<path fill-rule="evenodd" clip-rule="evenodd" d="M62.4023 69.4336C58.0078 69.4336 53.7891 67.6758 50.625 64.5117C44.2969 58.1836 44.2969 47.6367 50.625 41.3086C53.7891 38.1445 58.0078 36.5625 62.4023 36.5625C66.7969 36.5625 70.8398 38.1445 74.0039 41.3086C76.9922 44.4727 78.75 48.5156 78.75 52.9102C78.75 57.3047 76.9922 61.5234 74.0039 64.5117C70.8398 67.6758 66.7969 69.4336 62.4023 69.4336Z" fill="#1F3259"/>
<path fill-rule="evenodd" clip-rule="evenodd" d="M62.4023 64.3359C59.2383 64.3359 56.4258 63.1055 54.3164 60.9961C49.9219 56.6016 49.9219 49.3945 54.3164 44.8242C56.4258 42.7148 59.2383 41.6602 62.4023 41.6602C65.3906 41.6602 68.2031 42.7148 70.3125 44.8242C74.707 49.3945 74.707 56.6016 70.3125 60.9961C68.2031 63.1055 65.3906 64.3359 62.4023 64.3359Z" fill="#7ED8F6" stroke="#7ED8F6" stroke-width="0.9"/>
<path fill-rule="evenodd" clip-rule="evenodd" d="M29.1797 9.66797C30.7618 9.49219 32.3438 9.49219 33.9258 9.49219C42.0118 9.49219 49.9219 12.3047 56.0743 17.5781C60.293 21.2695 63.6328 26.0156 65.5664 31.2891C61.875 33.3984 55.1953 36.3867 51.6797 34.2773C49.2188 32.8711 48.1641 29.8828 48.3399 25.3125C48.1641 24.4336 47.6368 23.7305 47.461 23.7305C47.461 23.7305 46.5821 23.9062 44.8243 27.9492C44.6485 28.4766 42.8907 32.8711 39.1993 33.0469C38.8477 33.0469 37.9688 33.0469 37.793 33.3984C37.6172 33.9258 37.793 34.6289 38.3203 35.6836C39.7266 38.1445 39.5508 40.6055 38.1446 41.8359C37.793 42.0117 37.0899 42.3633 36.0352 42.3633C34.6289 42.3633 32.6953 41.6602 29.8828 39.0234L29.0039 38.1445C26.3672 35.5078 24.4336 33.5742 24.2578 31.4648C23.9063 29.0039 25.6641 26.543 28.6524 23.0273C31.8164 19.5117 31.8164 17.5781 31.6407 16.6992C31.4649 15.8203 30.586 15.4688 30.586 15.4688C30.586 15.293 30.4102 15.293 30.2344 15.1172C30.0586 14.9414 27.5977 12.3047 28.8282 10.1953C29.0039 10.0195 29.0039 9.84375 29.1797 9.66797Z" fill="#91DC5A"/>
</svg>
